<?xml version="1.0" standalone="no"?><!DOCTYPE svg PUBLIC "-//W3C//DTD SVG 1.1//EN" "http://www.w3.org/Graphics/SVG/1.1/DTD/svg11.dtd"><svg t="1510469074654" class="icon" style="" viewBox="0 0 1024 1024" version="1.1" xmlns="http://www.w3.org/2000/svg" p-id="1884" xmlns:xlink="http://www.w3.org/1999/xlink" width="200" height="200"><defs><style type="text/css"></style></defs><path d="M337.088266 871.598052c-38.434969 7.176149-77.721345 22.744744-115.061646 18.852595-32.840005-3.40563-73.221048-20.920299-92.681791-45.976006-37.097042-47.435562-33.569783-105.209645 13.50089-146.563725 37.82682-33.204894 81.613493-63.490676 127.954389-82.70816 153.739874-63.612305 307.236489-44.273192 460.854734 14.473928-150.820763 52.544008-279.991448 137.684761-396.391021 243.624183 0.12163-0.12163 1.824445-1.702815 1.824445-1.702815z m492.235182-626.392683c106.91246 20.433781 165.65958 72.856159 175.87647 152.766837 9.365483 73.950826-13.014372 122.237795-69.085639 148.753058-15.203706-112.507424-94.749495-154.348022-173.200618-122.845943-27.001782-32.718375-52.057489-67.382825-81.613493-97.546977-17.39304-17.879558-40.624302-36.853783-63.733935-41.110821-59.598527-10.825039-92.438532-35.637487-103.62846-100.709348-9.730372-56.679416 13.987409-105.452904 70.301936-89.032902 57.287564 16.784891 113.84535 23.474522 171.376173 33.326523 52.787267 9.000594 77.599715 58.017342 73.707566 116.399573z m-357.834422 45.732747c65.55838-12.406224 131.846538 0 196.796769 57.165934-84.167716 6.689631-125.156907 66.896306-177.579284 111.412757-25.420596 21.528448-56.071267 55.584749-87.816606 2.919112-3.284-5.473334-19.947262-5.473334-29.920893-4.013779-50.962822 7.05452-81.978382-21.285188-81.491864-71.883121 0.12163-15.325336-5.959853-34.299561-16.055113-45.489488-38.434969-42.570377-46.340896-92.803421-18.366077-141.941798 29.799264-52.422378 89.76268-78.816011 149.726096-65.80164 51.81423 11.189928 98.641644 57.652453 97.425347 105.817793-0.608148 17.879558-21.650077 35.150968-32.718375 51.81423z m99.128163 428.257988l206.162252-83.681197 4.257037-12.041335-157.632022-58.138972c41.47571-32.110227 87.451716-66.896306 132.454685-103.020311 29.920893-23.961041 60.085046-40.259413 98.398385-19.460743 37.82682 20.433781 63.977194 52.057489 58.990379 94.627865-5.716593 48.651859 12.771113 84.897494 34.907709 124.913648 15.568595 28.096449 24.812448 65.071861 22.014966 96.817199-4.135408 47.313933-34.786079 56.192897-76.748308 32.596745-14.352298-8.027557-32.231857-12.041335-48.895118-13.62252-66.288158-6.203112-127.832759-47.678822-199.83751-20.068892-18.852595 7.297779-48.651859-13.987409-73.464307-22.136596l-0.608148-16.784891z m12.041335-320.49412c-11.311557 72.24801-47.678822 122.845944-115.669795 143.401354-54.125193 16.420002-111.047868 24.325929-163.956764 43.543413C253.528698 603.769569 204.025432 626.514313 161.576685 657.043354c-32.596745 23.474522-54.125193 62.274379-85.99216 100.952608-61.666231 1.216296-73.099418-40.259413-42.570377-96.8172 21.528448-39.772895 69.08564-67.504454 109.223423-94.627865C192.470616 532.616225 246.839068 504.763036 309.843225 468.274142c27.853189 9.730372 70.180306 30.650671 114.575128 37.340302 22.501485 3.40563 51.6926-14.717187 72.856158-30.042523 30.772301-22.379855 57.165934-50.962822 85.384013-76.869937z m18.244447 442.245397c-62.760898 60.571564-114.088609-32.840005-176.849507-9.852002l-5.230075-11.433186c36.853783-24.569189 72.977788-50.354674 111.291127-72.49127 7.662668-4.500297 23.474522 4.986816 35.515857 8.149186 30.772301 8.149186 65.43675 29.556004 91.708754 21.893337 71.274973-20.79867 132.211427 19.095855 198.742844 21.771707 38.07008 1.581185 46.584155 28.461337 19.095854 54.733341-17.14978 16.541632-43.421784 31.866968-66.166528 32.840005-58.50386 2.310963-117.615869-1.946074-175.998099-7.784298-10.703409-1.094667-19.339114-22.014966-32.110227-37.82682z m-76.748308-289.113672c32.353486-52.422378 59.476897-104.844756 95.600903-150.212614 11.919705-14.960447 51.935859-22.501485 70.058677-14.109039 34.42119 15.811854 36.732153 52.300748 16.176743 83.316308-43.056895 64.706972-108.128756 83.316308-181.836323 81.005345zM335.385451 873.179237l88.303124-35.880745C332.831228 939.710654 159.022463 967.563844 126.668976 886.19361c74.072455 22.623114 145.104169 32.840005 210.41929-14.595558l-1.702815 1.581185z m-302.979451-104.114978c57.652453 24.08267 78.816011 64.950232 68.477491 123.454092l-68.477491-123.454092z" p-id="1885" fill="#ffffff"></path></svg>